<svg width="24" height="24" viewBox="0 0 24 24"  xmlns="http://www.w3.org/2000/svg">
<path fill-rule="evenodd" clip-rule="evenodd" d="M6.48311 2.81529C2.81152 3.99738 1.17386 8.00569 2.40482 11.8295C3.02947 13.6301 4.04534 15.2485 5.38004 16.5762C7.21101 18.3545 9.22254 19.9194 11.3849 21.2491L11.6304 21.3961C11.8656 21.5369 12.1598 21.5344 12.3926 21.3897L12.6218 21.2473C14.7812 19.9194 16.7927 18.3545 18.6174 16.5824C19.9584 15.2485 20.9743 13.6301 21.5937 11.8452C22.8291 8.00801 21.1847 3.9978 17.512 2.81535L17.2463 2.73623C15.5624 2.27309 13.773 2.5013 12.2645 3.35535L11.9964 3.51429L11.733 3.35623C10.1419 2.45344 8.2404 2.25003 6.48311 2.81529ZM11.376 4.85427L11.5727 4.99538C11.832 5.18111 12.182 5.17742 12.4373 4.98625C13.7673 3.99056 15.4886 3.70082 17.0654 4.20669C19.911 5.12284 21.206 8.28096 20.2078 11.382C19.6663 12.9417 18.77 14.3696 17.593 15.5405L17.065 16.0421C15.6423 17.3642 14.1039 18.561 12.4705 19.6156L12.0026 19.9098L12.1454 19.9998C10.0818 18.7308 8.15508 17.2319 6.40715 15.5343C5.23638 14.3696 4.3401 12.9417 3.7934 11.3663C2.79941 8.27801 4.08879 5.12212 6.93286 4.20645C8.43464 3.72338 10.0719 3.96289 11.376 4.85427ZM15.8721 6.48373C15.4873 6.36092 15.0758 6.57303 14.9528 6.95748C14.8299 7.34194 15.0422 7.75316 15.427 7.87597C16.1832 8.11734 16.7224 8.79803 16.7899 9.60095C16.8238 10.0031 17.1775 10.3017 17.58 10.2679C17.9825 10.2341 18.2814 9.88069 18.2475 9.47852C18.1306 8.08858 17.1935 6.9055 15.8721 6.48373Z" "/>
</svg>
